<svg version="1.1" id="Layer_1" xmlns="http://www.w3.org/2000/svg" xmlns:xlink="http://www.w3.org/1999/xlink" x="0px" y="0px"
	 width="100%" viewBox="0 0 647 226" enable-background="new 0 0 647 226" xml:space="preserve">
<path fill="#FFFFFF" opacity="1.000000" stroke="none" 
	d="
M82.000000,1.000000 
	C243.358231,1.000000 404.716461,1.000000 566.238159,1.346792 
	C569.388794,2.713995 572.323914,3.936538 575.371887,4.720413 
	C589.858765,8.446123 602.138855,16.429010 612.842407,26.260466 
	C618.892456,31.817528 623.060425,39.650009 627.296204,46.912498 
	C639.106140,67.161598 642.126038,89.009529 636.357483,111.604652 
	C625.501892,154.125671 590.436035,180.912598 546.597961,180.923523 
	C515.940308,180.931168 485.282074,181.019119 454.625702,180.822708 
	C450.186127,180.794266 448.072906,181.743637 446.614563,186.356079 
	C443.446045,196.377365 429.334259,206.543015 420.051605,206.350403 
	C424.669342,197.955276 423.327026,189.555298 420.317017,180.926041 
	C418.380859,180.926041 416.560272,180.926041 414.739655,180.926041 
	C311.103485,180.925812 207.467270,180.877625 103.831200,180.982056 
	C89.852341,180.996155 76.413078,178.762665 63.765205,172.887878 
	C26.548512,155.601166 9.921401,121.545929 10.599909,87.120422 
	C10.878527,72.984200 14.834433,59.506439 21.948595,47.148312 
	C27.860687,36.878315 34.250294,26.931334 44.049736,19.809908 
	C54.951775,11.887204 66.804863,5.954786 80.031769,2.936409 
	C80.795380,2.762153 81.348770,1.666725 82.000000,1.000000 
z"/>
<path fill="none" opacity="1.000000" stroke="none" 
	d="
M81.531342,1.000000 
	C81.348770,1.666725 80.795380,2.762153 80.031769,2.936409 
	C66.804863,5.954786 54.951775,11.887204 44.049736,19.809908 
	C34.250294,26.931334 27.860687,36.878315 21.948595,47.148312 
	C14.834433,59.506439 10.878527,72.984200 10.599909,87.120422 
	C9.921401,121.545929 26.548512,155.601166 63.765205,172.887878 
	C76.413078,178.762665 89.852341,180.996155 103.831200,180.982056 
	C207.467270,180.877625 311.103485,180.925812 414.739655,180.926041 
	C416.560272,180.926041 418.380859,180.926041 420.317017,180.926041 
	C423.327026,189.555298 424.669342,197.955276 420.051605,206.350403 
	C429.334259,206.543015 443.446045,196.377365 446.614563,186.356079 
	C448.072906,181.743637 450.186127,180.794266 454.625702,180.822708 
	C485.282074,181.019119 515.940308,180.931168 546.597961,180.923523 
	C590.436035,180.912598 625.501892,154.125671 636.357483,111.604652 
	C642.126038,89.009529 639.106140,67.161598 627.296204,46.912498 
	C623.060425,39.650009 618.892456,31.817528 612.842407,26.260466 
	C602.138855,16.429010 589.858765,8.446123 575.371887,4.720413 
	C572.323914,3.936538 569.388794,2.713995 566.700806,1.346792 
	C593.990662,1.000000 620.981262,1.000000 647.978943,0.999998 
	C647.985962,76.297836 647.985962,151.595673 647.985962,226.946747 
	C432.443665,226.946747 216.887299,226.946747 1.165471,226.946747 
	C1.165471,151.666931 1.165471,76.333511 1.165471,1.000000 
	C27.747885,1.000000 54.405285,1.000000 81.531342,1.000000 
z"/>
</svg>