<svg version="1.1" id="Layer_1" xmlns="http://www.w3.org/2000/svg" xmlns:xlink="http://www.w3.org/1999/xlink" x="0px" y="0px"
	 width="100%" viewBox="0 0 647 226" enable-background="new 0 0 647 226" xml:space="preserve">
<path fill="#FFFFFF" opacity="1.000000" stroke="none" 
	d="
M82.000000,1.000001 
	C243.358231,1.000000 404.716461,1.000000 566.238159,1.346786 
	C567.058044,2.124600 567.662415,2.797450 568.378357,2.951503 
	C589.431396,7.481436 607.206787,17.706953 620.042358,35.014381 
	C636.182495,56.777630 642.341309,81.130363 637.078247,108.243843 
	C629.034302,149.683838 591.800964,180.913879 549.580261,180.919144 
	C416.444763,180.935730 283.309265,180.941376 150.173843,180.847946 
	C146.203354,180.845169 144.132416,181.614304 142.781769,185.841354 
	C139.465363,196.220474 125.874207,206.316238 115.981247,206.436234 
	C120.779457,198.050461 119.204666,189.630478 116.410866,180.925552 
	C112.313622,180.925552 108.327812,180.826874 104.348305,180.943359 
	C90.202309,181.357407 76.591179,178.840347 63.778088,172.892227 
	C26.567785,155.618362 9.943507,121.575043 10.588493,87.126205 
	C10.856600,72.806595 14.896822,59.127209 22.104996,46.700195 
	C27.949265,36.624577 34.312981,26.791325 44.039501,19.799202 
	C54.983158,11.932112 66.804214,5.955370 80.031548,2.936425 
	C80.795242,2.762123 81.348701,1.666730 82.000000,1.000001 
z"/>
<path fill="none" opacity="1.000000" stroke="none" 
	d="
M81.531342,1.000001 
	C81.348701,1.666730 80.795242,2.762123 80.031548,2.936425 
	C66.804214,5.955370 54.983158,11.932112 44.039501,19.799202 
	C34.312981,26.791325 27.949265,36.624577 22.104996,46.700195 
	C14.896822,59.127209 10.856600,72.806595 10.588493,87.126205 
	C9.943507,121.575043 26.567785,155.618362 63.778088,172.892227 
	C76.591179,178.840347 90.202309,181.357407 104.348305,180.943359 
	C108.327812,180.826874 112.313622,180.925552 116.410866,180.925552 
	C119.204666,189.630478 120.779457,198.050461 115.981247,206.436234 
	C125.874207,206.316238 139.465363,196.220474 142.781769,185.841354 
	C144.132416,181.614304 146.203354,180.845169 150.173843,180.847946 
	C283.309265,180.941376 416.444763,180.935730 549.580261,180.919144 
	C591.800964,180.913879 629.034302,149.683838 637.078247,108.243843 
	C642.341309,81.130363 636.182495,56.777630 620.042358,35.014381 
	C607.206787,17.706953 589.431396,7.481436 568.378357,2.951503 
	C567.662415,2.797450 567.058044,2.124600 566.700806,1.346786 
	C593.990662,1.000000 620.981262,1.000000 647.978943,0.999998 
	C647.985962,76.297836 647.985962,151.595673 647.985962,226.946747 
	C432.443665,226.946747 216.887299,226.946747 1.165471,226.946747 
	C1.165471,151.666931 1.165471,76.333511 1.165471,1.000000 
	C27.747885,1.000000 54.405285,1.000000 81.531342,1.000001 
z"/>
</svg>