<svg version="1.1" id="Layer_1" xmlns="http://www.w3.org/2000/svg" xmlns:xlink="http://www.w3.org/1999/xlink" x="0px" y="0px"
	 width="100%" viewBox="0 0 786 398" enable-background="new 0 0 786 398" xml:space="preserve">
<path fill="#13BF4F" opacity="1.000000" stroke="none" 
	d="
M787.000000,68.000015 
	C787.000000,178.302567 787.000000,288.605133 787.000000,398.953857 
	C525.103821,398.953857 263.207672,398.953857 1.155760,398.953857 
	C1.155760,266.333466 1.155760,133.666763 1.155760,1.000000 
	C12.407534,1.000000 23.737724,1.000000 35.387543,1.389032 
	C36.210087,2.157900 36.657673,2.709603 37.224167,2.892007 
	C47.014221,6.044281 57.197376,8.296073 66.546646,12.434471 
	C90.787743,23.164656 109.884781,40.797112 126.306358,61.091412 
	C143.769485,82.672897 156.510117,107.185745 165.821762,133.289230 
	C171.006485,147.823624 174.771072,162.864609 179.242294,177.901352 
	C180.271713,177.269073 181.563675,176.591248 182.730362,175.741440 
	C198.733231,164.084961 215.969650,154.820511 234.477737,147.677521 
	C253.256531,140.430084 272.621490,135.517624 292.485809,133.291107 
	C306.457581,131.725067 320.700256,131.677475 334.775543,132.200882 
	C347.389435,132.669922 360.238892,133.612198 372.444763,136.571564 
	C388.758728,140.526962 404.825897,145.921387 420.503906,151.979340 
	C443.897858,161.018692 464.352295,175.037201 482.658783,192.162964 
	C495.744415,204.404587 507.150696,218.027679 515.933105,232.908234 
	C574.044617,162.143600 645.182312,144.176559 729.686951,178.691559 
	C730.566406,174.042831 731.372009,169.021896 732.478821,164.068253 
	C736.946289,144.073639 744.520752,125.231384 754.914368,107.654785 
	C760.219177,98.683830 766.852539,90.498482 773.248230,81.896591 
	C776.970154,81.257584 777.887146,78.897461 777.951538,75.935471 
	C777.964050,75.965149 777.904663,75.940132 778.264648,75.886246 
	C780.401978,74.183617 782.179382,72.534874 784.083252,70.605515 
	C785.139771,69.549942 786.069885,68.774979 787.000000,68.000015 
z"/>
<path fill="none" opacity="1.000000" stroke="none" 
	d="
M787.000000,67.531357 
	C786.069885,68.774979 785.139771,69.549942 783.778442,70.751297 
	C781.533020,72.765167 779.718872,74.352654 777.904663,75.940140 
	C777.904663,75.940132 777.964050,75.965149 777.650269,76.082397 
	C775.852844,78.119118 774.369141,80.038589 772.885437,81.958054 
	C766.852539,90.498482 760.219177,98.683830 754.914368,107.654785 
	C744.520752,125.231384 736.946289,144.073639 732.478821,164.068253 
	C731.372009,169.021896 730.566406,174.042831 729.686951,178.691559 
	C645.182312,144.176559 574.044617,162.143600 515.933105,232.908234 
	C507.150696,218.027679 495.744415,204.404587 482.658783,192.162964 
	C464.352295,175.037201 443.897858,161.018692 420.503906,151.979340 
	C404.825897,145.921387 388.758728,140.526962 372.444763,136.571564 
	C360.238892,133.612198 347.389435,132.669922 334.775543,132.200882 
	C320.700256,131.677475 306.457581,131.725067 292.485809,133.291107 
	C272.621490,135.517624 253.256531,140.430084 234.477737,147.677521 
	C215.969650,154.820511 198.733231,164.084961 182.730362,175.741440 
	C181.563675,176.591248 180.271713,177.269073 179.242294,177.901352 
	C174.771072,162.864609 171.006485,147.823624 165.821762,133.289230 
	C156.510117,107.185745 143.769485,82.672897 126.306358,61.091412 
	C109.884781,40.797112 90.787743,23.164656 66.546646,12.434471 
	C57.197376,8.296073 47.014221,6.044281 37.224167,2.892007 
	C36.657673,2.709603 36.210087,2.157900 35.853584,1.389032 
	C286.333344,1.000000 536.666687,1.000000 787.000000,1.000000 
	C787.000000,23.086216 787.000000,45.074451 787.000000,67.531357 
z"/>
<path fill="#13BF4F" opacity="1.000000" stroke="none" 
	d="
M773.248230,81.896606 
	C774.369141,80.038589 775.852844,78.119118 777.637756,76.052719 
	C777.887146,78.897461 776.970154,81.257584 773.248230,81.896606 
z"/>
<path fill="#13BF4F" opacity="1.000000" stroke="none" 
	d="
M778.264648,75.886246 
	C779.718872,74.352654 781.533020,72.765167 783.651978,71.031906 
	C782.179382,72.534874 780.401978,74.183617 778.264648,75.886246 
z"/>
</svg>