<svg version="1.1" id="Layer_1" xmlns="http://www.w3.org/2000/svg" xmlns:xlink="http://www.w3.org/1999/xlink" x="0px" y="0px"
	 width="100%" viewBox="0 0 786 486" enable-background="new 0 0 786 486" xml:space="preserve">
<path fill="#13BF4F" opacity="1.000000" stroke="none" 
	d="
M43.000000,487.000000 
	C29.003370,487.000000 15.006739,487.000000 1.007581,487.000000 
	C1.005054,325.042358 1.005054,163.084717 1.005054,1.063540 
	C262.894562,1.063540 524.789124,1.063540 787.000000,1.063540 
	C787.000000,161.689178 787.000000,322.378540 786.584595,483.534546 
	C783.446106,485.000793 780.723083,486.000397 778.000000,487.000000 
	C764.977356,487.000000 751.954773,487.000000 738.612183,486.611023 
	C737.789673,485.842377 737.342285,485.295074 736.776062,485.108185 
	C728.719238,482.449402 720.333252,480.536957 712.637695,477.083099 
	C691.912842,467.781525 675.304871,453.169891 661.694580,435.122925 
	C651.070251,421.035126 642.343689,405.809265 636.189392,389.263184 
	C632.394653,379.060944 629.394653,368.563080 625.875183,357.695557 
	C621.848999,360.150940 617.914490,362.714905 613.831299,365.015015 
	C574.638611,387.093140 532.532593,394.368439 488.030029,390.090607 
	C469.110870,388.271973 450.865692,383.955597 433.284576,376.921875 
	C412.033447,368.419800 392.341187,357.260864 376.272522,340.647583 
	C369.983124,334.145020 364.414093,326.946350 358.504303,320.075592 
	C356.800629,318.094818 355.779968,317.217133 353.218933,319.971313 
	C346.622345,327.065369 339.691620,333.952240 332.231354,340.119873 
	C311.497406,357.261353 287.072906,366.302216 260.663086,368.737732 
	C236.315048,370.983093 212.224564,368.282166 189.540436,357.923340 
	C188.319092,357.365631 186.898926,357.243317 186.687424,357.191559 
	C182.366623,369.392639 178.964539,381.217468 174.061691,392.383301 
	C163.780807,415.797119 147.540848,434.646423 127.333199,450.199951 
	C103.025917,468.908966 75.620392,480.236267 45.416550,485.075806 
	C44.531006,485.217712 43.801994,486.336639 43.000000,487.000000 
z"/>
<path fill="none" opacity="1.000000" stroke="none" 
	d="
M43.468658,487.000000 
	C43.801994,486.336639 44.531006,485.217712 45.416550,485.075806 
	C75.620392,480.236267 103.025917,468.908966 127.333199,450.199951 
	C147.540848,434.646423 163.780807,415.797119 174.061691,392.383301 
	C178.964539,381.217468 182.366623,369.392639 186.687424,357.191559 
	C186.898926,357.243317 188.319092,357.365631 189.540436,357.923340 
	C212.224564,368.282166 236.315048,370.983093 260.663086,368.737732 
	C287.072906,366.302216 311.497406,357.261353 332.231354,340.119873 
	C339.691620,333.952240 346.622345,327.065369 353.218933,319.971313 
	C355.779968,317.217133 356.800629,318.094818 358.504303,320.075592 
	C364.414093,326.946350 369.983124,334.145020 376.272522,340.647583 
	C392.341187,357.260864 412.033447,368.419800 433.284576,376.921875 
	C450.865692,383.955597 469.110870,388.271973 488.030029,390.090607 
	C532.532593,394.368439 574.638611,387.093140 613.831299,365.015015 
	C617.914490,362.714905 621.848999,360.150940 625.875183,357.695557 
	C629.394653,368.563080 632.394653,379.060944 636.189392,389.263184 
	C642.343689,405.809265 651.070251,421.035126 661.694580,435.122925 
	C675.304871,453.169891 691.912842,467.781525 712.637695,477.083099 
	C720.333252,480.536957 728.719238,482.449402 736.776062,485.108185 
	C737.342285,485.295074 737.789673,485.842377 738.146118,486.611023 
	C506.645782,487.000000 275.291534,487.000000 43.468658,487.000000 
z"/>
<path fill="none" opacity="1.000000" stroke="none" 
	d="
M778.491089,487.000000 
	C780.723083,486.000397 783.446106,485.000793 786.584595,484.000610 
	C787.000000,484.958069 787.000000,485.916168 787.000000,487.000000 
	C784.328003,487.000000 781.655029,487.000000 778.491089,487.000000 
z"/>
</svg>