<svg version="1.1" id="Layer_1" xmlns="http://www.w3.org/2000/svg" xmlns:xlink="http://www.w3.org/1999/xlink" x="0px" y="0px"
	 width="100%" viewBox="0 0 786 360" enable-background="new 0 0 786 360" xml:space="preserve">
<path fill="#13BF4F" opacity="1.000000" stroke="none" 
	d="
M43.000008,361.000000 
	C29.003954,361.000000 15.007907,361.000000 1.008896,361.000000 
	C1.005931,241.037842 1.005931,121.075684 1.005931,1.056764 
	C262.888153,1.056764 524.776306,1.056764 787.000000,1.056764 
	C787.000000,119.687889 787.000000,238.376099 786.588623,357.532715 
	C783.784851,359.000732 781.392395,360.000366 779.000000,361.000000 
	C765.645203,361.000000 752.290466,361.000000 738.614014,360.611023 
	C737.789673,359.842377 737.342346,359.295044 736.776123,359.108154 
	C728.719299,356.449371 720.333313,354.536987 712.637756,351.083099 
	C691.912903,341.781525 675.304871,327.169952 661.694641,309.122925 
	C651.070251,295.035095 642.343689,279.809265 636.189392,263.263184 
	C632.394653,253.060928 629.394653,242.563095 625.875183,231.695557 
	C621.848999,234.150940 617.914490,236.714905 613.831360,239.015030 
	C574.638611,261.093170 532.532593,268.368439 488.029999,264.090607 
	C469.110809,262.272003 450.865723,257.955536 433.284576,250.921844 
	C412.033447,242.419861 392.341217,231.260818 376.272522,214.647598 
	C369.983124,208.145050 364.414154,200.946335 358.504395,194.075562 
	C356.800629,192.094742 355.779968,191.217133 353.218933,193.971313 
	C346.622314,201.065353 339.691620,207.952209 332.231384,214.119873 
	C311.497498,231.261398 287.072906,240.302216 260.663116,242.737747 
	C236.315094,244.983154 212.224625,242.282150 189.540497,231.923340 
	C188.319168,231.365616 186.899002,231.243301 186.687393,231.191498 
	C182.366608,243.392578 178.964584,255.217422 174.061737,266.383240 
	C163.780869,289.797119 147.540878,308.646393 127.333237,324.199951 
	C103.025940,342.908966 75.620415,354.236267 45.416569,359.075775 
	C44.531006,359.217651 43.802010,360.336639 43.000008,361.000000 
z"/>
<path fill="none" opacity="1.000000" stroke="none" 
	d="
M43.468666,361.000000 
	C43.802010,360.336639 44.531006,359.217651 45.416569,359.075775 
	C75.620415,354.236267 103.025940,342.908966 127.333237,324.199951 
	C147.540878,308.646393 163.780869,289.797119 174.061737,266.383240 
	C178.964584,255.217422 182.366608,243.392578 186.687393,231.191498 
	C186.899002,231.243301 188.319168,231.365616 189.540497,231.923340 
	C212.224625,242.282150 236.315094,244.983154 260.663116,242.737747 
	C287.072906,240.302216 311.497498,231.261398 332.231384,214.119873 
	C339.691620,207.952209 346.622314,201.065353 353.218933,193.971313 
	C355.779968,191.217133 356.800629,192.094742 358.504395,194.075562 
	C364.414154,200.946335 369.983124,208.145050 376.272522,214.647598 
	C392.341217,231.260818 412.033447,242.419861 433.284576,250.921844 
	C450.865723,257.955536 469.110809,262.272003 488.029999,264.090607 
	C532.532593,268.368439 574.638611,261.093170 613.831360,239.015030 
	C617.914490,236.714905 621.848999,234.150940 625.875183,231.695557 
	C629.394653,242.563095 632.394653,253.060928 636.189392,263.263184 
	C642.343689,279.809265 651.070251,295.035095 661.694641,309.122925 
	C675.304871,327.169952 691.912903,341.781525 712.637756,351.083099 
	C720.333313,354.536987 728.719299,356.449371 736.776123,359.108154 
	C737.342346,359.295044 737.789673,359.842377 738.146118,360.611023 
	C506.645782,361.000000 275.291534,361.000000 43.468666,361.000000 
z"/>
<path fill="none" opacity="1.000000" stroke="none" 
	d="
M779.494751,361.000000 
	C781.392395,360.000366 783.784851,359.000732 786.588623,358.000549 
	C787.000000,358.953369 787.000000,359.906769 787.000000,361.000000 
	C784.663940,361.000000 782.326721,361.000000 779.494751,361.000000 
z"/>
</svg>