<svg version="1.1" id="Layer_1" xmlns="http://www.w3.org/2000/svg" xmlns:xlink="http://www.w3.org/1999/xlink" x="0px" y="0px"
	 width="100%" viewBox="0 0 822 652" enable-background="new 0 0 822 652" xml:space="preserve">
<path fill="none" opacity="1.000000" stroke="none" 
	d="
M518.000000,653.000000 
	C345.333344,653.000000 173.166672,653.000000 1.000000,653.000000 
	C1.000000,435.666656 1.000000,218.333328 1.000000,1.000000 
	C275.000000,1.000000 549.000000,1.000000 823.000000,1.000000 
	C823.000000,218.333328 823.000000,435.666656 823.000000,653.000000 
	C721.500000,653.000000 620.000000,653.000000 518.000000,653.000000 
M494.500000,577.000000 
	C577.152344,577.000000 659.805176,576.866699 742.456360,577.175842 
	C752.318665,577.212708 759.185730,569.796875 759.171448,560.546082 
	C758.931519,405.072754 759.000488,249.598984 758.998962,94.125305 
	C758.998840,82.240494 753.820984,77.000679 742.085083,77.000633 
	C522.622253,76.999771 303.159363,77.055344 83.696762,76.822708 
	C73.621193,76.812027 66.785736,84.228836 66.814758,93.787857 
	C67.115837,192.936829 66.999977,292.087067 67.000015,391.236938 
	C67.000038,448.060638 66.984818,504.884399 67.053810,561.708008 
	C67.056709,564.094788 67.322906,566.742676 68.365356,568.817200 
	C71.336548,574.729980 76.360367,577.070435 83.069534,577.066101 
	C219.879639,576.978027 356.689819,577.000000 494.500000,577.000000 
z"/>
<path fill="#D5BFA1" opacity="1.000000" stroke="none" 
	d="
M494.000000,577.000000 
	C356.689819,577.000000 219.879639,576.978027 83.069534,577.066101 
	C76.360367,577.070435 71.336548,574.729980 68.365356,568.817200 
	C67.322906,566.742676 67.056709,564.094788 67.053810,561.708008 
	C66.984818,504.884399 67.000038,448.060638 67.000015,391.236938 
	C66.999977,292.087067 67.115837,192.936829 66.814758,93.787857 
	C66.785736,84.228836 73.621193,76.812027 83.696762,76.822708 
	C303.159363,77.055344 522.622253,76.999771 742.085083,77.000633 
	C753.820984,77.000679 758.998840,82.240494 758.998962,94.125305 
	C759.000488,249.598984 758.931519,405.072754 759.171448,560.546082 
	C759.185730,569.796875 752.318665,577.212708 742.456360,577.175842 
	C659.805176,576.866699 577.152344,577.000000 494.000000,577.000000 
M93.235336,106.143898 
	C93.646606,105.861526 94.063377,105.586800 94.468300,105.295601 
	C98.998856,102.037476 100.422028,97.147881 98.126434,92.737389 
	C95.657387,87.993622 91.235809,85.907059 86.557045,87.277748 
	C81.056679,88.889114 78.337196,92.977898 79.037018,98.584167 
	C79.807716,104.758194 84.767952,107.679054 93.235336,106.143898 
M730.752502,102.539230 
	C734.930664,107.798805 739.863892,108.644821 745.002625,104.983025 
	C749.238770,101.964409 750.390503,96.668182 747.777466,92.223541 
	C744.642578,86.891441 739.671936,85.478760 734.177551,88.358452 
	C728.982361,91.081329 727.633667,95.795792 730.752502,102.539230 
M97.248421,547.462280 
	C94.787727,543.186584 90.876534,542.152222 86.531097,543.381165 
	C82.739494,544.453430 79.605042,546.687317 79.056480,551.148438 
	C78.468018,555.934082 80.137718,559.784790 84.386757,561.996948 
	C88.672966,564.228455 92.894539,563.323730 96.279442,559.969177 
	C99.774529,556.505493 99.935265,552.384277 97.248421,547.462280 
M746.859253,546.778259 
	C742.290833,542.076111 736.625427,541.707947 731.893738,545.805786 
	C728.216858,548.990112 727.921387,554.960876 731.224060,559.340820 
	C734.386414,563.534729 739.895935,564.333252 744.512939,561.266846 
	C749.461853,557.979980 750.425232,553.113770 746.859253,546.778259 
z"/>
<path fill="#EEEEED" opacity="1.000000" stroke="none" 
	d="
M92.893219,106.342949 
	C84.767952,107.679054 79.807716,104.758194 79.037018,98.584167 
	C78.337196,92.977898 81.056679,88.889114 86.557045,87.277748 
	C91.235809,85.907059 95.657387,87.993622 98.126434,92.737389 
	C100.422028,97.147881 98.998856,102.037476 94.468300,105.295601 
	C94.063377,105.586800 93.646606,105.861526 92.893219,106.342949 
z"/>
<path fill="#EEEEED" opacity="1.000000" stroke="none" 
	d="
M730.528564,102.218170 
	C727.633667,95.795792 728.982361,91.081329 734.177551,88.358452 
	C739.671936,85.478760 744.642578,86.891441 747.777466,92.223541 
	C750.390503,96.668182 749.238770,101.964409 745.002625,104.983025 
	C739.863892,108.644821 734.930664,107.798805 730.528564,102.218170 
z"/>
<path fill="#EEEEED" opacity="1.000000" stroke="none" 
	d="
M97.472198,547.783081 
	C99.935265,552.384277 99.774529,556.505493 96.279442,559.969177 
	C92.894539,563.323730 88.672966,564.228455 84.386757,561.996948 
	C80.137718,559.784790 78.468018,555.934082 79.056480,551.148438 
	C79.605042,546.687317 82.739494,544.453430 86.531097,543.381165 
	C90.876534,542.152222 94.787727,543.186584 97.472198,547.783081 
z"/>
<path fill="#EEEEED" opacity="1.000000" stroke="none" 
	d="
M747.052917,547.118469 
	C750.425232,553.113770 749.461853,557.979980 744.512939,561.266846 
	C739.895935,564.333252 734.386414,563.534729 731.224060,559.340820 
	C727.921387,554.960876 728.216858,548.990112 731.893738,545.805786 
	C736.625427,541.707947 742.290833,542.076111 747.052917,547.118469 
z"/>
</svg>