<svg version="1.1" id="Layer_1" xmlns="http://www.w3.org/2000/svg" xmlns:xlink="http://www.w3.org/1999/xlink" x="0px" y="0px"
	 width="100%" viewBox="0 0 822 652" enable-background="new 0 0 822 652" xml:space="preserve">
<path fill="none" opacity="1.000000" stroke="none" 
	d="
M511.000000,653.000000 
	C340.666656,653.000000 170.833328,653.000000 1.000000,653.000000 
	C1.000000,435.666656 1.000000,218.333328 1.000000,1.000000 
	C275.000000,1.000000 549.000000,1.000000 823.000000,1.000000 
	C823.000000,218.333328 823.000000,435.666656 823.000000,653.000000 
	C719.166687,653.000000 615.333313,653.000000 511.000000,653.000000 
M473.500000,577.000000 
	C573.816895,577.000000 674.134094,576.888855 774.450195,577.174133 
	C784.342590,577.202271 791.185669,569.772827 791.171448,560.552185 
	C790.931763,405.077484 791.000488,249.602371 790.998962,94.127350 
	C790.998840,82.241142 785.821533,77.000679 774.086853,77.000633 
	C533.292175,76.999794 292.497498,77.050667 51.703060,76.823120 
	C41.596607,76.813568 34.785732,84.253616 34.814766,93.781784 
	C35.115856,192.598328 34.999966,291.416138 35.000008,390.233612 
	C35.000034,447.391083 34.984921,504.548615 35.053776,561.705994 
	C35.056652,564.092957 35.321930,566.741028 36.364285,568.815613 
	C39.335052,574.728333 44.358192,577.070251 51.067726,577.066101 
	C191.545105,576.978638 332.022552,577.000000 473.500000,577.000000 
z"/>
<path fill="#D5BFA1" opacity="1.000000" stroke="none" 
	d="
M473.000000,577.000000 
	C332.022552,577.000000 191.545105,576.978638 51.067726,577.066101 
	C44.358192,577.070251 39.335052,574.728333 36.364285,568.815613 
	C35.321930,566.741028 35.056652,564.092957 35.053776,561.705994 
	C34.984921,504.548615 35.000034,447.391083 35.000008,390.233612 
	C34.999966,291.416138 35.115856,192.598328 34.814766,93.781784 
	C34.785732,84.253616 41.596607,76.813568 51.703060,76.823120 
	C292.497498,77.050667 533.292175,76.999794 774.086853,77.000633 
	C785.821533,77.000679 790.998840,82.241142 790.998962,94.127350 
	C791.000488,249.602371 790.931763,405.077484 791.171448,560.552185 
	C791.185669,569.772827 784.342590,577.202271 774.450195,577.174133 
	C674.134094,576.888855 573.816895,577.000000 473.000000,577.000000 
M66.827797,94.201668 
	C66.336021,93.337898 65.898636,92.437347 65.343620,91.616325 
	C61.774509,86.336563 56.326694,85.317665 51.142605,88.933617 
	C46.355526,92.272644 45.564178,97.869148 48.928585,102.919327 
	C51.690258,107.064751 55.672798,107.690620 59.917976,106.699303 
	C64.873665,105.542061 66.999229,101.611862 66.827797,94.201668 
M776.719543,88.527260 
	C775.159973,88.025261 773.633240,87.296791 772.034485,87.065102 
	C767.789429,86.449898 764.416260,88.342026 762.319641,91.803123 
	C760.217224,95.273788 760.362366,98.943199 762.705688,102.594872 
	C765.122803,106.361481 768.706482,107.986488 772.495300,106.747185 
	C775.478699,105.771301 778.750916,103.365753 780.242676,100.678185 
	C782.545471,96.529617 780.749146,92.310020 776.719543,88.527260 
M761.059204,555.013550 
	C761.798035,556.480713 762.380554,558.055969 763.305298,559.394714 
	C765.973755,563.257324 770.056030,563.866028 773.989807,562.605408 
	C777.886475,561.356812 780.834717,558.632996 781.013123,553.892273 
	C781.238586,547.900452 777.487793,543.327087 771.846375,543.015625 
	C765.053955,542.640625 761.187866,546.631714 761.059204,555.013550 
M47.793270,548.673157 
	C47.530521,549.959351 47.083153,551.238831 47.036415,552.532837 
	C46.812237,558.739746 50.964695,563.021606 57.063698,562.997314 
	C63.147758,562.973083 67.881470,558.486145 66.735985,552.453369 
	C66.122261,549.221252 63.437954,545.624695 60.643272,543.750366 
	C56.902405,541.241516 52.063362,543.425171 47.793270,548.673157 
z"/>
<path fill="#EEEEED" opacity="1.000000" stroke="none" 
	d="
M66.884987,94.599243 
	C66.999229,101.611862 64.873665,105.542061 59.917976,106.699303 
	C55.672798,107.690620 51.690258,107.064751 48.928585,102.919327 
	C45.564178,97.869148 46.355526,92.272644 51.142605,88.933617 
	C56.326694,85.317665 61.774509,86.336563 65.343620,91.616325 
	C65.898636,92.437347 66.336021,93.337898 66.884987,94.599243 
z"/>
<path fill="#EEEEED" opacity="1.000000" stroke="none" 
	d="
M777.025757,88.769249 
	C780.749146,92.310020 782.545471,96.529617 780.242676,100.678185 
	C778.750916,103.365753 775.478699,105.771301 772.495300,106.747185 
	C768.706482,107.986488 765.122803,106.361481 762.705688,102.594872 
	C760.362366,98.943199 760.217224,95.273788 762.319641,91.803123 
	C764.416260,88.342026 767.789429,86.449898 772.034485,87.065102 
	C773.633240,87.296791 775.159973,88.025261 777.025757,88.769249 
z"/>
<path fill="#EEEEED" opacity="1.000000" stroke="none" 
	d="
M761.037842,554.604614 
	C761.187866,546.631714 765.053955,542.640625 771.846375,543.015625 
	C777.487793,543.327087 781.238586,547.900452 781.013123,553.892273 
	C780.834717,558.632996 777.886475,561.356812 773.989807,562.605408 
	C770.056030,563.866028 765.973755,563.257324 763.305298,559.394714 
	C762.380554,558.055969 761.798035,556.480713 761.037842,554.604614 
z"/>
<path fill="#EEEEED" opacity="1.000000" stroke="none" 
	d="
M47.955315,548.313110 
	C52.063362,543.425171 56.902405,541.241516 60.643272,543.750366 
	C63.437954,545.624695 66.122261,549.221252 66.735985,552.453369 
	C67.881470,558.486145 63.147758,562.973083 57.063698,562.997314 
	C50.964695,563.021606 46.812237,558.739746 47.036415,552.532837 
	C47.083153,551.238831 47.530521,549.959351 47.955315,548.313110 
z"/>
</svg>