<svg version="1.1" id="Layer_1" xmlns="http://www.w3.org/2000/svg" xmlns:xlink="http://www.w3.org/1999/xlink" x="0px" y="0px"
	 width="100%" viewBox="0 0 692 928" enable-background="new 0 0 692 928" xml:space="preserve">
<path fill="#D5BFA1" opacity="1.000000" stroke="none" 
	d="
M1.000005,654.000000 
	C1.000000,438.973145 1.000000,223.946274 1.252245,8.789371 
	C3.669660,6.106222 5.834830,3.553111 8.000000,1.000000 
	C233.693527,1.000000 459.387054,1.000000 685.210693,1.252274 
	C687.893860,3.669698 690.446899,5.834848 693.000000,7.999999 
	C693.000000,223.026855 693.000000,438.053711 692.747803,653.210571 
	C688.553650,659.470032 682.973267,661.147217 675.759399,661.132141 
	C588.881653,660.950134 502.003357,661.044556 414.648865,661.049805 
	C369.073273,661.044128 323.973999,661.055420 278.414764,661.037231 
	C192.435455,661.005127 106.916061,660.960327 21.396868,661.071411 
	C13.636511,661.081482 6.166902,661.338074 1.644010,653.434326 
	C1.429347,653.622925 1.214679,653.811462 1.000005,654.000000 
M13.419321,18.308640 
	C10.364239,26.056219 19.532598,32.844044 25.918894,30.528517 
	C30.190910,28.979580 33.104237,25.096514 32.970577,20.695169 
	C32.832661,16.153625 29.399336,12.141034 24.846228,11.200092 
	C20.369238,10.274882 16.479652,12.499045 13.419321,18.308640 
M29.782421,646.336731 
	C33.596577,641.157410 34.063240,637.235840 30.991760,633.172791 
	C28.219627,629.505737 24.454254,628.091919 19.975014,629.588074 
	C14.509489,631.413574 11.374210,638.058105 13.566806,642.856567 
	C16.244745,648.717102 22.641603,650.336914 29.782421,646.336731 
M669.568298,629.768982 
	C663.564270,632.943481 661.227417,638.858032 664.088013,643.639404 
	C666.823425,648.211548 671.866943,650.092285 676.498901,648.267456 
	C681.249878,646.395752 683.937866,641.309082 682.668579,636.592468 
	C681.206299,631.158752 676.872070,628.645996 669.568298,629.768982 
M663.031555,20.612167 
	C663.171082,25.938801 665.819763,29.453894 670.951294,30.700497 
	C675.026978,31.690620 678.560974,30.231268 680.999329,26.826580 
	C683.697937,23.058554 684.168335,18.589088 680.895569,15.387912 
	C678.581299,13.124293 674.668457,11.341806 671.494995,11.381948 
	C666.811462,11.441194 663.936462,15.033894 663.031555,20.612167 
z"/>
<path fill="none" opacity="1.000000" stroke="none" 
	d="
M1.000005,654.468628 
	C1.214679,653.811462 1.429347,653.622925 1.644010,653.434326 
	C6.166902,661.338074 13.636511,661.081482 21.396868,661.071411 
	C106.916061,660.960327 192.435455,661.005127 278.467651,661.499023 
	C278.987000,750.993469 278.993500,839.996765 279.000000,929.000000 
	C186.406677,929.000000 93.813347,929.000000 1.000000,929.000000 
	C1.000000,837.645874 1.000000,746.291626 1.000005,654.468628 
z"/>
<path fill="none" opacity="1.000000" stroke="none" 
	d="
M415.125183,661.066833 
	C502.003357,661.044556 588.881653,660.950134 675.759399,661.132141 
	C682.973267,661.147217 688.553650,659.470032 692.747803,653.670288 
	C693.000000,745.594116 693.000000,837.188232 693.000000,929.000000 
	C600.645874,929.000000 508.291595,929.000000 415.468658,928.531372 
	C415.000000,844.551758 414.997650,761.040833 415.005371,677.529907 
	C415.005890,672.042236 415.083466,666.554504 415.125183,661.066833 
z"/>
<path fill="#AE9E87" opacity="1.000000" stroke="none" 
	d="
M414.648865,661.049805 
	C415.083466,666.554504 415.005890,672.042236 415.005371,677.529907 
	C414.997650,761.040833 415.000000,844.551758 415.000000,928.531372 
	C369.979095,929.000000 324.958221,929.000000 279.468658,929.000000 
	C278.993500,839.996765 278.987000,750.993469 278.927612,661.528503 
	C323.973999,661.055420 369.073273,661.044128 414.648865,661.049805 
z"/>
<path fill="none" opacity="1.000000" stroke="none" 
	d="
M7.502095,1.000000 
	C5.834830,3.553111 3.669660,6.106222 1.252245,8.329666 
	C1.000000,5.752362 1.000000,3.504725 1.000000,1.000000 
	C2.998142,1.000000 5.001166,1.000000 7.502095,1.000000 
z"/>
<path fill="none" opacity="1.000000" stroke="none" 
	d="
M693.000000,7.502094 
	C690.446899,5.834848 687.893860,3.669698 685.670410,1.252274 
	C688.247620,1.000000 690.495300,1.000000 693.000000,1.000000 
	C693.000000,2.998142 693.000000,5.001166 693.000000,7.502094 
z"/>
<path fill="#EEEEED" opacity="1.000000" stroke="none" 
	d="
M13.564846,17.938248 
	C16.479652,12.499045 20.369238,10.274882 24.846228,11.200092 
	C29.399336,12.141034 32.832661,16.153625 32.970577,20.695169 
	C33.104237,25.096514 30.190910,28.979580 25.918894,30.528517 
	C19.532598,32.844044 10.364239,26.056219 13.564846,17.938248 
z"/>
<path fill="#EEEEED" opacity="1.000000" stroke="none" 
	d="
M29.480890,646.573364 
	C22.641603,650.336914 16.244745,648.717102 13.566806,642.856567 
	C11.374210,638.058105 14.509489,631.413574 19.975014,629.588074 
	C24.454254,628.091919 28.219627,629.505737 30.991760,633.172791 
	C34.063240,637.235840 33.596577,641.157410 29.480890,646.573364 
z"/>
<path fill="#EEEEED" opacity="1.000000" stroke="none" 
	d="
M669.920593,629.587524 
	C676.872070,628.645996 681.206299,631.158752 682.668579,636.592468 
	C683.937866,641.309082 681.249878,646.395752 676.498901,648.267456 
	C671.866943,650.092285 666.823425,648.211548 664.088013,643.639404 
	C661.227417,638.858032 663.564270,632.943481 669.920593,629.587524 
z"/>
<path fill="#EEEEED" opacity="1.000000" stroke="none" 
	d="
M663.061890,20.217579 
	C663.936462,15.033894 666.811462,11.441194 671.494995,11.381948 
	C674.668457,11.341806 678.581299,13.124293 680.895569,15.387912 
	C684.168335,18.589088 683.697937,23.058554 680.999329,26.826580 
	C678.560974,30.231268 675.026978,31.690620 670.951294,30.700497 
	C665.819763,29.453894 663.171082,25.938801 663.061890,20.217579 
z"/>
</svg>